<?xml version="1.0" encoding="utf-8"?>
<!-- Generator: Adobe Illustrator 23.0.3, SVG Export Plug-In . SVG Version: 6.00 Build 0)  -->
<svg version="1.1" id="Ebene_1" xmlns="http://www.w3.org/2000/svg" xmlns:xlink="http://www.w3.org/1999/xlink" x="0px" y="0px"
	 viewBox="0 0 22.68 22.68" style="enable-background:new 0 0 22.68 22.68;" xml:space="preserve">
<style type="text/css">
	.st0{fill:#22a0a0;}
</style>
<g>
	<path class="st0" d="M15.79,14.18c0,0.16-0.13,0.29-0.29,0.29H7.18c-0.16,0-0.29-0.13-0.29-0.29c0-0.16,0.13-0.29,0.29-0.29h8.33
		C15.66,13.9,15.79,14.02,15.79,14.18 M15.79,12.71c0,0.16-0.13,0.29-0.29,0.29H7.18c-0.16,0-0.29-0.13-0.29-0.29
		c0-0.16,0.13-0.29,0.29-0.29h8.33C15.66,12.43,15.79,12.55,15.79,12.71 M15.79,11.24c0,0.16-0.13,0.29-0.29,0.29H7.18
		c-0.16,0-0.29-0.13-0.29-0.29c0-0.16,0.13-0.29,0.29-0.29h8.33C15.66,10.96,15.79,11.08,15.79,11.24 M15.79,9.77
		c0,0.16-0.13,0.29-0.29,0.29H7.18c-0.16,0-0.29-0.13-0.29-0.29c0-0.16,0.13-0.29,0.29-0.29h8.33C15.66,9.48,15.79,9.61,15.79,9.77
		 M15.79,8.3c0,0.16-0.13,0.29-0.29,0.29H7.18c-0.16,0-0.29-0.13-0.29-0.29s0.13-0.29,0.29-0.29h8.33
		C15.66,8.01,15.79,8.14,15.79,8.3 M15.79,6.83c0,0.16-0.13,0.29-0.29,0.29H7.18c-0.16,0-0.29-0.13-0.29-0.29
		c0-0.16,0.13-0.29,0.29-0.29h8.33C15.66,6.54,15.79,6.67,15.79,6.83 M17.9,15.27V5.75c0-1.81-1.8-1.81-1.8-1.81H6.59
		c-1.8,0-1.8,1.81-1.8,1.81v9.52c0,1.81,1.8,1.81,1.8,1.81h5.92l4.11,4.04l-2-4.04h1.48C17.9,17.08,17.9,15.27,17.9,15.27"/>
</g>
</svg>
