<?xml version="1.0" encoding="utf-8"?>
<!-- Generator: Adobe Illustrator 23.0.3, SVG Export Plug-In . SVG Version: 6.00 Build 0)  -->
<svg version="1.1" id="Ebene_1" xmlns="http://www.w3.org/2000/svg" xmlns:xlink="http://www.w3.org/1999/xlink" x="0px" y="0px"
	 viewBox="0 0 22.68 22.68" style="enable-background:new 0 0 22.68 22.68;" xml:space="preserve">
<style type="text/css">
	.st0{fill:#22a0a0;}
</style>
<g>
	<path class="st0" d="M13.71,13c-0.34,0.68-0.93,1.18-1.66,1.41c-1.49,0.48-3.09-0.33-3.58-1.82c-0.23-0.72-0.17-1.48,0.17-2.15
		c0.34-0.67,0.93-1.18,1.65-1.41c0.29-0.09,0.59-0.14,0.88-0.14c1.2,0,2.32,0.76,2.7,1.96C14.12,11.56,14.06,12.32,13.71,13
		 M20.28,8.49c-0.43-0.69-1.35-0.9-2.04-0.47c-0.44,0.27-0.66,0.74-0.67,1.22l-3.04,0.98C14,9.03,12.9,8.25,11.65,8.08V5.07
		C11.78,5.03,11.9,5,12.02,4.93c0.69-0.43,0.9-1.34,0.47-2.03c-0.43-0.69-1.35-0.9-2.04-0.47C9.75,2.86,9.54,3.77,9.97,4.46
		c0.2,0.32,0.5,0.52,0.83,0.61v2.99c-0.26,0.03-0.51,0.08-0.76,0.16c-0.94,0.31-1.7,0.95-2.15,1.83c-0.03,0.05-0.04,0.11-0.06,0.16
		L5.11,9.32c0.01-0.28-0.03-0.57-0.2-0.83C4.48,7.8,3.57,7.59,2.87,8.02c-0.69,0.43-0.9,1.34-0.47,2.03
		c0.43,0.69,1.35,0.9,2.04,0.47c0.17-0.11,0.31-0.24,0.41-0.39l2.71,0.89c-0.12,0.6-0.1,1.23,0.1,1.83c0.2,0.63,0.59,1.13,1.05,1.55
		l-1.78,2.48c-0.38-0.1-0.8-0.06-1.16,0.17c-0.69,0.43-0.9,1.34-0.47,2.03c0.43,0.69,1.35,0.9,2.04,0.47
		c0.69-0.43,0.9-1.34,0.47-2.03c-0.04-0.07-0.11-0.12-0.17-0.18l1.76-2.44c0.54,0.3,1.14,0.5,1.77,0.5c0.38,0,0.76-0.06,1.14-0.18h0
		c0.25-0.08,0.49-0.19,0.71-0.32l1.79,2.46c-0.4,0.48-0.49,1.17-0.14,1.72c0.43,0.69,1.35,0.9,2.04,0.47
		c0.69-0.43,0.91-1.34,0.47-2.03c-0.36-0.57-1.04-0.79-1.66-0.61l-1.83-2.52c0.3-0.29,0.57-0.62,0.76-1
		c0.38-0.74,0.47-1.56,0.32-2.36l2.99-0.96c0.44,0.68,1.34,0.89,2.03,0.46C20.5,10.09,20.71,9.18,20.28,8.49"/>
</g>
</svg>
