<?xml version="1.0" encoding="utf-8"?>
<!-- Generator: Adobe Illustrator 23.0.3, SVG Export Plug-In . SVG Version: 6.00 Build 0)  -->
<svg version="1.1" id="Ebene_1" xmlns="http://www.w3.org/2000/svg" xmlns:xlink="http://www.w3.org/1999/xlink" x="0px" y="0px"
	 viewBox="0 0 22.68 22.68" style="enable-background:new 0 0 22.68 22.68;" xml:space="preserve">
<style type="text/css">
	.st0{fill: #22a0a0;}
</style>
<polygon class="st0" points="12.26,15.03 13.44,14 5.82,9.46 "/>
<g>
	<path class="st0" d="M19.5,10.68c-0.34-1.63-1.16-3.05-2.27-4.14h0c-0.27-0.26-0.55-0.51-0.86-0.73c-1.46-1.1-3.3-1.73-5.28-1.67
		C8.99,4.18,7.1,5,5.67,6.31l1.39,1.59L5.67,6.31c-1.43,1.3-2.4,3.11-2.62,5.17c-0.22,2.06,0.36,4.01,1.48,5.58l1.16-0.74
		c-0.77-0.94-1.24-2.13-1.28-3.43c-0.06-2.09,1.01-3.94,2.67-5C7.18,7.81,7.27,7.76,7.37,7.7C7.38,7.69,7.4,7.69,7.42,7.68
		C7.51,7.62,7.6,7.58,7.7,7.53C7.72,7.52,7.74,7.51,7.76,7.5c0.71-0.33,1.51-0.53,2.34-0.55c1.56-0.04,3,0.52,4.08,1.48
		c0.14,0.12,0.27,0.25,0.4,0.39c0,0,0.01,0.01,0.01,0.01c0.06,0.06,0.11,0.12,0.16,0.18c0.01,0.02,0.03,0.03,0.04,0.05
		c0.02,0.02,0.04,0.05,0.06,0.07v0c0.76,0.94,1.22,2.12,1.26,3.41c0.03,1.03-0.22,2-0.67,2.85l2.71,1.65
		C19.43,15.26,19.98,12.98,19.5,10.68"/>
</g>
</svg>
