<?xml version="1.0" encoding="utf-8"?>
<!-- Generator: Adobe Illustrator 23.0.3, SVG Export Plug-In . SVG Version: 6.00 Build 0)  -->
<svg version="1.1" id="Ebene_1" xmlns="http://www.w3.org/2000/svg" xmlns:xlink="http://www.w3.org/1999/xlink" x="0px" y="0px"
	 viewBox="0 0 28.35 28.35" style="enable-background:new 0 0 28.35 28.35;" xml:space="preserve">
<style type="text/css">
	.st0{fill:#22a0a0;}
</style>
<g>
	<path class="st0" d="M11.93,16.24c-0.26,0-0.47-0.21-0.47-0.47c0-0.26,0.21-0.47,0.47-0.47c1.94,0,3.52-1.61,3.52-3.58
		c0-0.26,0.21-0.47,0.47-0.47c0.26,0,0.47,0.21,0.47,0.47C16.39,14.21,14.39,16.24,11.93,16.24"/>
	<path class="st0" d="M11.91,17.19c-3,0-5.44-2.45-5.44-5.46s2.44-5.46,5.44-5.46c3,0,5.44,2.45,5.44,5.46S14.91,17.19,11.91,17.19
		 M22.2,20.57l-2.15-2.15c-0.32-0.32-0.76-0.41-1.17-0.33l-1.85-1.85c1.06-1.21,1.73-2.78,1.73-4.52c0-3.79-3.07-6.87-6.85-6.87
		s-6.85,3.08-6.85,6.87s3.07,6.87,6.85,6.87c1.54,0,2.94-0.53,4.09-1.39l1.89,1.88c-0.08,0.41,0.01,0.85,0.33,1.17l2.15,2.15
		c0.25,0.25,0.58,0.38,0.92,0.38c0.33,0,0.66-0.13,0.92-0.38C22.71,21.9,22.71,21.08,22.2,20.57"/>
</g>
</svg>
